# xmcd
#
# Track frame offsets:
# 150
# 13001
# 21291
# 33633
# 43993
# 55974
# 67977
# 79397
# 91159
# 101284
#
# Disc length: 1482 seconds
#
#
# Revision: 0
# Processed by: cddbd v1.5.2PL0 Copyright (c) Steve Scherf et al.
# Submitted via: FreeRIP 2.942 
#
DISCID=7d05c80a
DTITLE=Johnny Cash - 10 Top 10's
DYEAR=2006
DGENRE=Country
TTITLE0=Folsom Prison Blues
TTITLE1=Guess Things Happen That Way
TTITLE2=I Walk The Line
TTITLE3=There You Go
TTITLE4=You're Th Nearest Thing To Heaven
TTITLE5=Home Of The Blues
TTITLE6=Big River
TTITLE7=So Doggone Lonesome
TTITLE8=The Ways Of A Woman In Love
TTITLE9=Ballad Of A Teenage Queen
EXTD=
EXTT0=
EXTT1=
EXTT2=
EXTT3=
EXTT4=
EXTT5=
EXTT6=
EXTT7=
EXTT8=
EXTT9=
PLAYORDER=
